<svg xmlns="http://www.w3.org/2000/svg" viewBox="0 0 25.13 17.57"><defs><style>.cls-1{fill:#fff;}</style></defs><title>Fichier 9</title><g id="Calque_2" data-name="Calque 2"><g id="Calque_1-2" data-name="Calque 1"><path class="cls-1" d="M13.73,7.6a10.47,10.47,0,0,0-1.26,1.94l9.06,0a1.64,1.64,0,0,1,.45-.8h0a1.72,1.72,0,0,1,.8-.45v-5a1.64,1.64,0,0,1-.8-.45,1.6,1.6,0,0,1-.45-.8H8.33a1.76,1.76,0,0,1-.45.8,1.68,1.68,0,0,1-.8.45V6.06A2.48,2.48,0,0,0,7.48,6c.12-.06.72-.65,1.39-1.3a14.68,14.68,0,0,1,2.24-2,2.19,2.19,0,0,1,1.68-.37,2.91,2.91,0,0,1,1,.39,3.09,3.09,0,0,1,.79.74A2.33,2.33,0,0,1,15,5.16,5,5,0,0,1,13.73,7.6M18,11.4c1.08,0,2.15-.07,3.2-.08l3.11-.07L24.23.8H5.76l-.15,0h0V1l0,5.52.06,0a1.33,1.33,0,0,1,.62-.29V2.58h.4a.91.91,0,0,0,.64-.26.93.93,0,0,0,.26-.64v-.4H22.28v.4a.9.9,0,0,0,.9.9h.4V9.07h-.4a.88.88,0,0,0-.63.26h0a.87.87,0,0,0-.27.63v.4h-.4l-9.47,0a1.05,1.05,0,0,0,.05.19,1.64,1.64,0,0,0,.9.85l.23.13Zm-13.87,4,.06-.16h0a47.24,47.24,0,0,0,1.15-5.16,7.38,7.38,0,0,0,.15-2.41l-.1-.11h0l0,0-.2-.22-.37-.4,0,0,0-.14L4.81,1A1,1,0,0,1,5.06.24,1,1,0,0,1,5.75,0h18.7a.57.57,0,0,1,.42.19h0A.6.6,0,0,1,25,.61h0l.11,10.7h0v.07a.6.6,0,0,1-.16.44.64.64,0,0,1-.42.2h-.09l-2.11.06v0l0,.13c0,.77-.22.9-.75,1.21h0l-.22.13h0l-.37.21A34.71,34.71,0,0,1,17.55,16,10.92,10.92,0,0,1,15,17.25l-.54.1a9.66,9.66,0,0,1-1.94.22,35.91,35.91,0,0,1-3.67-.4c-1.72-.26-3.49-.57-4.12-.74h0a1.28,1.28,0,0,1-.44-.26h0a.52.52,0,0,1-.12-.59l.06-.17Zm.82.08a1.25,1.25,0,0,1-.06.18c.6.16,2.32.46,4,.71a34.48,34.48,0,0,0,3.55.4,9.16,9.16,0,0,0,1.8-.21l.55-.1h.06a11.71,11.71,0,0,0,2.27-1.13,31.61,31.61,0,0,0,3.33-2.1l.12-.1.39-.22.23-.14h0c.24-.14.35-.2.36-.46,0-.09-.06-.11-.08-.12h0l-.08-.07h-.36l-3,.07-.51,0c-1.37,0-2.75.09-4.08.09l-.15,0a3.07,3.07,0,0,1-1.18-.75l0,0a2,2,0,0,1-.55-1.27v-.7h0A8.35,8.35,0,0,1,13.1,7.12a4.63,4.63,0,0,0,1.14-2V5.07a1.51,1.51,0,0,0-.3-1.14,2.06,2.06,0,0,0-.57-.53,1.89,1.89,0,0,0-.71-.28,1.47,1.47,0,0,0-1.12.25l-.12.06a17.87,17.87,0,0,0-2,1.81A11.91,11.91,0,0,1,7.81,6.7a2.81,2.81,0,0,1-.69.16l-.38.07L6.55,7,6.41,7l-.28.13,0,.06a6.14,6.14,0,0,1,0,3A45.54,45.54,0,0,1,5,15.48Zm0-7.43,0,.07,0,.17a23,23,0,0,1-.73,4.57A9.58,9.58,0,0,1,3,16H3l-.24.35h0c-.39.6-.8,1.23-1.83,1.05h0a1,1,0,0,1-.68-.55A1.92,1.92,0,0,1,0,16.05H0V11.35H0v-.57a22.34,22.34,0,0,1,.15-4.2A.9.9,0,0,1,.51,6.2h0a1.73,1.73,0,0,1,1.28-.15,6.26,6.26,0,0,1,1.39.49A4.57,4.57,0,0,1,4.83,7.8,1.06,1.06,0,0,1,4.94,8.05Zm-.74.3v0l0-.08a3.61,3.61,0,0,0-1.33-1,4.53,4.53,0,0,0-1.18-.42,1,1,0,0,0-.69,0h0a.15.15,0,0,0,0,.06,28.58,28.58,0,0,0-.07,3.84v.58h0V16a1,1,0,0,0,.08.48.24.24,0,0,0,.16.13c.49.08.75-.32,1-.69h0c.09-.13.18-.27.28-.4A9,9,0,0,0,3.5,12.66,23.16,23.16,0,0,0,4.2,8.35Z"/></g></g></svg>